<mxfile host="app.diagrams.net" agent="Mozilla/5.0 (X11; Linux x86_64; rv:136.0) Gecko/20100101 Firefox/136.0" version="26.1.0">
  <diagram name="Page-1" id="TAZlgT22ht56Y466qdNy">
    <mxGraphModel dx="1062" dy="585" grid="1" gridSize="10" guides="1" tooltips="1" connect="1" arrows="1" fold="1" page="1" pageScale="1" pageWidth="850" pageHeight="1100" math="0" shadow="0">
      <root>
        <mxCell id="0" />
        <mxCell id="1" parent="0" />
        <mxCell id="NaqMO3hd6edNACipOoVX-5" style="edgeStyle=orthogonalEdgeStyle;rounded=0;orthogonalLoop=1;jettySize=auto;html=1;exitX=0;exitY=0.5;exitDx=0;exitDy=0;entryX=1;entryY=0.5;entryDx=0;entryDy=0;" parent="1" source="NaqMO3hd6edNACipOoVX-1" target="NaqMO3hd6edNACipOoVX-3" edge="1">
          <mxGeometry relative="1" as="geometry" />
        </mxCell>
        <mxCell id="NaqMO3hd6edNACipOoVX-6" style="edgeStyle=orthogonalEdgeStyle;rounded=0;orthogonalLoop=1;jettySize=auto;html=1;exitX=0;exitY=0.25;exitDx=0;exitDy=0;entryX=1;entryY=0.5;entryDx=0;entryDy=0;" parent="1" source="NaqMO3hd6edNACipOoVX-1" target="NaqMO3hd6edNACipOoVX-2" edge="1">
          <mxGeometry relative="1" as="geometry" />
        </mxCell>
        <mxCell id="NaqMO3hd6edNACipOoVX-7" style="edgeStyle=orthogonalEdgeStyle;rounded=0;orthogonalLoop=1;jettySize=auto;html=1;exitX=0;exitY=0.75;exitDx=0;exitDy=0;entryX=1;entryY=0.5;entryDx=0;entryDy=0;" parent="1" source="NaqMO3hd6edNACipOoVX-1" target="NaqMO3hd6edNACipOoVX-4" edge="1">
          <mxGeometry relative="1" as="geometry" />
        </mxCell>
        <mxCell id="zjEpHCu8tJKBX756nmZk-4" style="edgeStyle=orthogonalEdgeStyle;rounded=0;orthogonalLoop=1;jettySize=auto;html=1;exitX=0.25;exitY=1;exitDx=0;exitDy=0;entryX=1;entryY=0.5;entryDx=0;entryDy=0;" edge="1" parent="1" source="NaqMO3hd6edNACipOoVX-1" target="zjEpHCu8tJKBX756nmZk-3">
          <mxGeometry relative="1" as="geometry" />
        </mxCell>
        <mxCell id="NaqMO3hd6edNACipOoVX-1" value="Server.js" style="rounded=0;whiteSpace=wrap;html=1;" parent="1" vertex="1">
          <mxGeometry x="480" y="140" width="120" height="60" as="geometry" />
        </mxCell>
        <mxCell id="NaqMO3hd6edNACipOoVX-2" value="&lt;div&gt;&lt;b&gt;Route:&lt;/b&gt;&lt;/div&gt;&lt;div&gt;/Status.js&lt;/div&gt;" style="rounded=0;whiteSpace=wrap;html=1;" parent="1" vertex="1">
          <mxGeometry x="280" y="40" width="120" height="60" as="geometry" />
        </mxCell>
        <mxCell id="NaqMO3hd6edNACipOoVX-3" value="&lt;div&gt;&lt;b&gt;Route:&lt;/b&gt;&lt;/div&gt;&lt;div&gt;/taskRows.js&lt;/div&gt;" style="rounded=0;whiteSpace=wrap;html=1;" parent="1" vertex="1">
          <mxGeometry x="280" y="140" width="120" height="60" as="geometry" />
        </mxCell>
        <mxCell id="NaqMO3hd6edNACipOoVX-4" value="&lt;div&gt;&lt;b&gt;Route:&lt;/b&gt;&lt;/div&gt;&lt;div&gt;/taskRow.js&lt;/div&gt;" style="rounded=0;whiteSpace=wrap;html=1;" parent="1" vertex="1">
          <mxGeometry x="280" y="240" width="120" height="60" as="geometry" />
        </mxCell>
        <mxCell id="NaqMO3hd6edNACipOoVX-8" value="&lt;i&gt;Apparently everthing is fine.&lt;/i&gt;" style="rounded=0;whiteSpace=wrap;html=1;" parent="1" vertex="1">
          <mxGeometry x="60" y="40" width="200" height="60" as="geometry" />
        </mxCell>
        <mxCell id="NaqMO3hd6edNACipOoVX-9" value="database.js" style="rounded=0;whiteSpace=wrap;html=1;verticalAlign=bottom;fillColor=#f5f5f5;fontColor=#333333;strokeColor=#666666;fontStyle=1" parent="1" vertex="1">
          <mxGeometry x="50" y="120" width="220" height="420" as="geometry" />
        </mxCell>
        <mxCell id="NaqMO3hd6edNACipOoVX-11" value="&lt;div&gt;&lt;b&gt;getTaskRows()&lt;/b&gt;&lt;/div&gt;&lt;div align=&quot;left&quot;&gt;select id, created_timestamp, start_timestamp, end_timestamp, hour_amount, task, project&lt;br&gt;from task_rows&lt;/div&gt;" style="rounded=0;whiteSpace=wrap;html=1;fontStyle=0;spacingLeft=5;" parent="1" vertex="1">
          <mxGeometry x="60" y="130" width="200" height="80" as="geometry" />
        </mxCell>
        <mxCell id="NaqMO3hd6edNACipOoVX-13" value="&lt;div&gt;&lt;b&gt;createTaskRow()&lt;/b&gt;&lt;/div&gt;&lt;div align=&quot;left&quot;&gt;insert into task_rows &lt;br&gt;(created_timestamp, start_timestamp, end_timestamp, hour_amount, task, project)&lt;/div&gt;" style="rounded=0;whiteSpace=wrap;html=1;fontStyle=0;spacingLeft=5;" parent="1" vertex="1">
          <mxGeometry x="60" y="230" width="200" height="80" as="geometry" />
        </mxCell>
        <mxCell id="zjEpHCu8tJKBX756nmZk-1" value="&lt;div&gt;&lt;b&gt;loginAttempt()&lt;/b&gt;&lt;/div&gt;&lt;div align=&quot;left&quot;&gt;select password_hash from users where email = ?&lt;/div&gt;" style="rounded=0;whiteSpace=wrap;html=1;fontStyle=0;spacingLeft=5;" vertex="1" parent="1">
          <mxGeometry x="60" y="330" width="200" height="80" as="geometry" />
        </mxCell>
        <mxCell id="zjEpHCu8tJKBX756nmZk-2" value="&lt;div&gt;&lt;b&gt;firstLogin()&lt;/b&gt;&lt;/div&gt;&lt;div align=&quot;left&quot;&gt;select force_pw_reset from users where email = ?&lt;/div&gt;" style="rounded=0;whiteSpace=wrap;html=1;fontStyle=0;spacingLeft=5;" vertex="1" parent="1">
          <mxGeometry x="60" y="430" width="200" height="80" as="geometry" />
        </mxCell>
        <mxCell id="zjEpHCu8tJKBX756nmZk-3" value="&lt;div&gt;&lt;b&gt;Route:&lt;/b&gt;&lt;/div&gt;&lt;div&gt;/login.js&lt;/div&gt;" style="rounded=0;whiteSpace=wrap;html=1;" vertex="1" parent="1">
          <mxGeometry x="280" y="390" width="120" height="60" as="geometry" />
        </mxCell>
      </root>
    </mxGraphModel>
  </diagram>
</mxfile>
